<svg width="92" height="38" viewBox="0 0 92 38" fill="none" xmlns="http://www.w3.org/2000/svg">
<path fill-rule="evenodd" clip-rule="evenodd" d="M26.2985 37.774C23.1038 37.774 20.4785 37.778 17.8505 37.766C17.6571 37.7647 17.3158 37.9367 17.3011 37.5274C17.2891 37.15 17.5865 37.1874 17.8465 37.1607C18.8678 37.054 19.8905 36.9754 20.8171 36.4407C21.3105 36.1567 21.6225 35.77 21.8051 35.246C22.2118 34.09 22.3665 32.886 22.4371 31.6794C22.8705 24.302 22.6185 16.9154 22.6291 9.53404C22.6318 7.68737 22.5678 5.83004 22.2438 3.99404C21.8251 1.6207 20.7705 0.683369 18.3451 0.603371C18.1611 0.596703 17.9771 0.587372 17.7945 0.594036C17.5238 0.603371 17.2905 0.540703 17.3091 0.222038C17.3278 -0.100628 17.6131 0.024704 17.7825 0.024704C21.7505 0.0207024 25.7185 0.0220375 29.6865 0.0313721C32.9958 0.0380402 36.2931 0.248703 39.5371 0.927372C43.2798 1.71004 46.6278 3.3167 49.4038 5.98204C51.2131 7.71804 52.2798 9.93137 52.9625 12.298C54.3718 17.1807 54.2918 22.0367 52.4678 26.8274C51.1198 30.3714 48.6771 32.9247 45.4118 34.766C42.7265 36.2794 39.8051 36.9927 36.7878 37.43C33.1131 37.9607 29.4185 37.698 26.2985 37.774Z" fill="#F48FB1"/>
<path fill-rule="evenodd" clip-rule="evenodd" d="M54.418 22.9432C54.5727 22.7872 54.7647 22.8605 54.9313 22.8605C57.722 22.8539 60.514 22.8685 63.3073 22.8459C63.7967 22.8405 63.946 22.9765 63.9193 23.4632C63.8807 24.2005 63.91 24.9419 63.91 25.7112C63.7847 25.6685 63.7287 25.6619 63.726 25.6459C63.542 24.4152 62.69 23.9019 61.5927 23.6565C60.4967 23.4112 59.3833 23.3205 58.2593 23.3045C57.9193 23.2992 57.818 23.4245 57.8193 23.7525C57.8313 25.6272 57.8287 27.5005 57.8207 29.3739C57.8193 29.6779 57.9167 29.8099 58.2327 29.7952C59.058 29.7552 59.886 29.7379 60.6953 29.5592C61.5287 29.3765 61.8047 29.0419 61.9567 28.1845C61.9913 27.9805 61.9433 27.7459 62.1753 27.4952V32.3832C62.1407 32.3899 62.1033 32.3979 62.0673 32.4059C62.0247 32.1725 61.954 31.9432 61.9447 31.7099C61.9127 31.0405 61.534 30.6685 60.93 30.4952C60.018 30.2339 59.0793 30.2379 58.142 30.2405C57.902 30.2419 57.8207 30.3592 57.826 30.5819C57.866 32.2699 57.7153 33.9619 57.95 35.6432C58.0647 36.4712 58.4167 36.7792 59.234 36.7312C60.1313 36.6792 61.0287 36.6325 61.9127 36.4392C63.4753 36.0965 63.9433 35.7272 64.538 34.2885C64.7153 34.2952 64.6713 34.4365 64.6713 34.5299C64.678 35.2832 64.6713 36.0365 64.6793 36.7899C64.682 37.0485 64.6313 37.2005 64.322 37.1992C61.0513 37.1899 57.782 37.1899 54.5113 37.1845C54.482 37.1845 54.4527 37.1512 54.3887 37.1125C54.5927 36.8592 54.8967 36.9405 55.1367 36.8885C55.7487 36.7592 56.1033 36.4432 56.198 35.8032C56.2967 35.1299 56.3847 34.4539 56.39 33.7765C56.4047 31.1872 56.402 28.5965 56.3887 26.0072C56.3847 25.4592 56.3353 24.9045 56.2447 24.3632C56.094 23.4712 55.7513 23.1859 54.8553 23.0859C54.7073 23.0712 54.5193 23.1525 54.418 22.9432Z" fill="#F48FB1"/>
<path fill-rule="evenodd" clip-rule="evenodd" d="M49.0274 21.6676C48.9781 22.4423 48.7967 23.1956 48.6687 23.957C48.2687 23.8516 48.3234 23.541 48.3741 23.2583C48.5647 22.2116 48.4381 21.1916 48.1647 20.177C47.9181 19.2543 47.5954 18.3623 47.1861 17.497C46.8901 16.8716 46.4967 16.3423 45.9954 15.869C44.9314 14.865 43.7754 13.9983 42.3954 13.4983C41.3101 13.105 40.1447 12.7623 39.0261 12.8223C38.0194 12.8757 36.9741 13.1397 35.9754 13.4636C34.9127 13.8063 34.1181 14.509 33.2501 15.157C32.1754 15.957 31.5127 17.0077 30.8807 18.1236C30.7781 18.3036 30.7514 18.4503 30.8154 18.6317C30.8167 18.9837 30.6007 19.241 30.4007 19.4876C30.1234 19.829 30.0301 20.1743 30.2154 20.5823C30.2701 20.9223 30.1087 21.2276 30.0527 21.5516C29.7647 23.181 30.1634 24.725 30.8807 26.125C31.9607 28.229 33.5767 29.8983 35.8541 30.705C37.2461 31.1983 38.7354 31.461 40.2287 31.333C41.0421 31.2623 41.8394 30.993 42.6061 30.677C43.5247 30.2996 44.2994 29.7223 45.0941 29.1236C45.9301 28.4943 46.4314 27.6383 47.1194 26.9183C47.2714 26.7596 47.3901 26.565 47.6127 26.497C47.7021 26.4703 47.8461 26.4183 47.8141 26.6196C47.4021 27.537 47.0474 28.4796 46.5034 29.3343C44.8874 31.8783 42.5621 33.545 39.8607 34.757C36.4274 36.297 32.8061 36.6636 29.0954 36.5516C28.3461 36.529 27.8434 36.213 27.4247 35.6676C27.1527 35.313 26.9821 34.909 26.8634 34.4783C26.6474 33.693 26.5914 32.885 26.5527 32.081C26.4647 30.229 26.4181 28.3743 26.4207 26.5183C26.4327 18.4543 26.4314 10.389 26.4141 2.32365C26.4127 1.74899 26.5114 1.51165 27.1607 1.43832C31.4661 0.952988 35.6581 1.29832 39.6954 2.97298C44.1007 4.79832 46.9874 7.98632 48.3461 12.5557C49.1781 15.3543 49.3981 18.209 49.1141 21.109C49.0221 21.285 49.1381 21.4943 49.0274 21.6676Z" fill="#FBF9F7"/>
<path fill-rule="evenodd" clip-rule="evenodd" d="M47.8142 26.6195C47.5902 26.5208 47.5209 26.7302 47.4409 26.8422C47.0049 27.4502 46.4289 27.9528 46.1062 28.6475C46.0702 28.7208 45.9836 28.7955 45.9062 28.8235C45.2036 29.0675 44.7942 29.6848 44.2462 30.1235C43.7382 30.5315 43.1089 30.7048 42.5289 30.9248C41.4956 31.3128 40.4249 31.7288 39.2809 31.5648C37.3742 31.2942 35.4649 31.1382 33.8209 29.8502C33.0302 29.2315 32.2969 28.5702 31.7062 27.8155C30.8982 26.7822 30.2649 25.6248 30.0169 24.2608C29.8516 23.3515 29.6969 22.4822 29.8196 21.5542C29.8676 21.2048 30.1316 20.9222 30.0596 20.5568C30.5636 20.6328 30.6209 21.0915 30.8156 21.4355C30.9089 22.9475 31.0129 24.4515 31.7436 25.8342C31.9329 26.1942 32.1502 26.5435 32.4022 26.8382C33.3449 27.9355 34.2076 29.1448 35.6702 29.6435C35.7489 29.6515 35.8276 29.6622 35.8996 29.6942C36.0449 29.7942 36.1929 29.8888 36.3809 29.8768C36.4316 29.8808 36.4809 29.8928 36.5276 29.9062C36.7142 29.9795 36.9142 30.0155 37.1036 30.0782C37.2102 30.0902 37.3156 30.0968 37.4116 30.1515C37.8396 30.3182 38.2302 30.4742 38.7462 30.3782C39.2436 30.2862 39.7982 30.4755 40.3249 30.4088C41.0089 30.3222 41.6702 30.1408 42.2356 29.7142C42.3089 29.6728 42.3876 29.6475 42.4702 29.6395C42.9116 29.7248 43.2822 29.4222 43.5596 29.2315C44.5596 28.5435 45.5409 27.8008 46.1596 26.7022C46.3076 26.4395 46.4316 26.1862 46.4462 25.8862C46.4756 25.7715 46.5369 25.6768 46.6236 25.5995C47.1556 25.0888 47.2716 24.3995 47.3582 23.7248C47.4649 22.9048 47.5209 22.0808 47.4329 21.2502C47.4009 20.9568 47.3929 20.6715 47.2316 20.4168C46.9502 19.3862 46.5969 18.3875 45.9862 17.4968C45.2369 16.4048 44.3276 15.4782 43.1329 14.8968C42.2436 14.4662 41.3116 14.1155 40.3196 13.9688C38.0089 13.6288 35.9262 14.1622 34.0982 15.6248C33.8516 15.8222 33.5529 15.9288 33.3142 16.1315C32.9062 16.2328 32.6196 16.4915 32.3676 16.8168C31.9889 17.3048 31.6516 17.8248 31.2662 18.3062C31.1262 18.4795 31.0209 18.7262 30.7222 18.6728C30.4929 18.5182 30.4662 18.3888 30.6156 18.1048C30.9782 17.4075 31.4382 16.7728 31.8836 16.1395C32.1209 15.7995 32.3702 15.3995 32.8569 15.2262C33.3062 15.0648 33.6102 14.6142 33.9689 14.2968C34.6716 13.6755 35.4996 13.4088 36.3422 13.1542C36.9329 12.9755 37.6369 13.0048 38.1449 12.7688C39.0436 12.3488 39.8649 12.6662 40.6409 12.8168C41.7356 13.0302 42.8422 13.3168 43.8422 13.9568C45.0316 14.7195 46.1556 15.5475 46.9769 16.6795C47.5142 17.4208 47.8156 18.3315 48.1209 19.2142C48.4662 20.2102 48.5876 21.2515 48.7396 22.2848C48.7809 22.5622 48.7462 22.8968 48.6209 23.1422C48.4596 23.4555 48.5089 23.6928 48.6689 23.9568C48.5076 24.8835 48.2302 25.7742 47.8142 26.6195Z" fill="#FBF9F7"/>
<path fill-rule="evenodd" clip-rule="evenodd" d="M49.0269 21.668C49.0322 21.4773 48.9749 21.2786 49.1135 21.1093C49.1255 21.3013 49.1415 21.4946 49.0269 21.668Z" fill="#F192B3"/>
<path fill-rule="evenodd" clip-rule="evenodd" d="M86.9989 36.9249C86.7967 36.9408 86.5677 36.9589 86.2878 37.1426H91.4171C91.398 36.9756 91.3021 36.967 91.2192 36.9596C91.2153 36.9593 91.2115 36.9589 91.2078 36.9586C90.2398 36.8759 89.7171 36.2839 89.3971 35.4239C89.2226 34.9563 89.0366 34.4935 88.8507 34.0308C88.6603 33.5569 88.4699 33.0829 88.2918 32.6039C87.1598 29.5599 86.0291 26.5146 84.9264 23.4599C84.7531 22.9799 84.5211 22.8119 84.0158 22.8439C83.518 22.8749 83.0185 22.8689 82.5187 22.8629C82.2648 22.8598 82.0109 22.8568 81.7571 22.8586C81.7313 22.8588 81.7044 22.8571 81.6771 22.8554C81.5678 22.8485 81.4521 22.8412 81.3731 22.9586C81.429 23.0633 81.5115 23.0692 81.5911 23.075C81.6007 23.0757 81.6103 23.0764 81.6198 23.0772C82.6691 23.1839 82.8904 23.4879 82.6624 24.5092C82.6318 24.6519 82.5984 24.7959 82.5558 24.9359C81.826 27.3507 80.9833 29.7274 80.1407 32.104C79.8919 32.8059 79.643 33.5077 79.3971 34.2106C79.1851 34.8159 78.9358 35.4119 78.5718 35.9479C78.3118 36.3306 78.0158 36.6866 77.5584 36.8439C76.8838 37.0759 76.7971 37.0092 76.7958 36.3106C76.7954 36.1354 76.7955 35.9601 76.7956 35.7848C76.7958 35.3903 76.796 34.9958 76.7904 34.6026C76.7902 34.5797 76.7928 34.5548 76.7955 34.5293C76.8059 34.4319 76.8171 34.326 76.6691 34.2879C76.0064 35.9092 75.6398 36.2079 73.8571 36.5786C73.2078 36.7132 72.5504 36.7626 71.8878 36.7666C70.9878 36.7719 70.7691 36.6079 70.5891 35.7186C70.5432 35.4965 70.529 35.2659 70.515 35.0385C70.5144 35.0283 70.5137 35.0181 70.5131 35.0079C70.3899 32.9485 70.4098 30.8875 70.4296 28.8268C70.4357 28.1885 70.4419 27.5502 70.4438 26.9119C70.4464 26.0906 70.4811 25.2626 70.6158 24.4426C70.7824 23.4386 71.0438 23.1826 72.0838 23.0812C72.1119 23.0786 72.1431 23.0804 72.1749 23.0823C72.2852 23.0889 72.4028 23.0959 72.4224 22.9159C71.5624 22.7652 67.3744 22.8279 67.0718 22.9946C67.1484 23.0826 67.2475 23.0813 67.346 23.0801C67.3744 23.0798 67.4027 23.0795 67.4304 23.0812C68.4091 23.1359 68.7291 23.4332 68.8771 24.3839C68.9424 24.8039 68.9771 25.2226 68.9784 25.6452L68.9784 25.6487C68.9811 28.5315 68.9838 31.4131 68.9824 34.2959C68.9824 34.7532 68.9718 35.2106 68.8798 35.6666C68.7038 36.5426 68.3744 36.8626 67.4984 36.9586C67.4605 36.9628 67.4193 36.9606 67.3774 36.9584C67.2454 36.9514 67.1059 36.944 67.0371 37.1332H81.1798C81.0504 36.9556 80.9139 36.9575 80.7879 36.9592C80.7504 36.9597 80.7137 36.9602 80.6784 36.9559C79.6891 36.8426 79.4798 36.5626 79.6491 35.5799C79.7687 34.8989 79.9782 34.2464 80.188 33.5931C80.2472 33.4085 80.3065 33.2239 80.3638 33.0386C80.4371 32.7972 80.5611 32.6812 80.8331 32.6839C82.3787 32.6917 83.9243 32.6902 85.4699 32.6887C85.779 32.6884 86.0881 32.6881 86.3971 32.6879C86.5691 32.6879 86.7358 32.6986 86.8038 32.8932C86.8845 33.1224 86.9684 33.3506 87.0524 33.5787C87.3551 34.4018 87.6577 35.2244 87.8091 36.0919C87.8878 36.5386 87.6784 36.8159 87.1984 36.9026C87.1344 36.9142 87.0682 36.9194 86.9989 36.9249ZM85.407 29.0252C84.8081 27.3949 84.2092 25.7646 83.601 24.1118C83.5625 24.1297 83.5354 24.1408 83.5167 24.1484C83.4909 24.159 83.4813 24.1629 83.4797 24.1691C83.1593 25.0768 82.8396 25.9844 82.5198 26.892C81.9322 28.5603 81.3446 30.2283 80.753 31.8958C80.6397 32.2144 80.8077 32.2278 81.041 32.2264C81.1817 32.2262 81.3223 32.226 81.463 32.2257C83.0103 32.2232 84.5578 32.2206 86.1064 32.2304C86.4877 32.2331 86.5424 32.1064 86.4144 31.7718C86.1724 31.1379 85.9414 30.4995 85.7106 29.8615C85.6108 29.5856 85.511 29.3098 85.4104 29.0344L85.407 29.0252Z" fill="#F48FB1"/>
<path fill-rule="evenodd" clip-rule="evenodd" d="M0 37.4844H4.78533C4.56857 37.2924 4.39177 37.2834 4.23698 37.2755C4.19181 37.2732 4.14853 37.271 4.10667 37.2644C3.16267 37.1137 2.96 36.8257 3.12667 35.8844C3.25788 35.1441 3.48552 34.4319 3.71334 33.7192C3.77027 33.5411 3.82721 33.363 3.88267 33.1844C3.96933 32.9084 4.12133 32.811 4.40267 32.8124C6.33067 32.823 8.25867 32.8244 10.188 32.8244C10.3653 32.8244 10.5293 32.8484 10.5933 33.035C10.6837 33.2962 10.7787 33.5559 10.8737 33.8156C11.1821 34.6592 11.4905 35.5024 11.6413 36.3924C11.7213 36.863 11.5027 37.1497 10.992 37.2244C10.9295 37.2337 10.864 37.2366 10.7966 37.2397C10.5834 37.2494 10.3514 37.26 10.1387 37.4737H15.4333C15.3995 37.2898 15.2876 37.2816 15.1935 37.2746C15.1839 37.2739 15.1745 37.2732 15.1653 37.2724C14.2 37.1937 13.6507 36.619 13.3373 35.755C13.299 35.6507 13.2538 35.5488 13.2087 35.4469C13.1645 35.3471 13.1203 35.2474 13.0827 35.1457C12.8971 34.6494 12.7115 34.153 12.5259 33.6567C11.2072 30.1306 9.88856 26.6047 8.58533 23.0737C8.44133 22.6884 8.264 22.519 7.83867 22.5377C7.3609 22.5571 6.88264 22.554 6.40449 22.5509C6.09267 22.5489 5.7809 22.5468 5.46933 22.551C5.4302 22.5514 5.38906 22.5468 5.34733 22.5422C5.21274 22.5274 5.07206 22.5118 4.97333 22.6564C5.02043 22.7649 5.10526 22.7689 5.18738 22.7727C5.2122 22.7739 5.23678 22.775 5.26 22.779C6.32133 22.9617 6.51333 23.255 6.27067 24.3177C6.26734 24.3319 6.26403 24.3461 6.26073 24.3603C6.23488 24.4712 6.20925 24.5811 6.17733 24.691C5.6446 26.5326 5.00802 28.339 4.37152 30.1453C4.08724 30.952 3.80298 31.7587 3.528 32.5684C3.47259 32.731 3.41803 32.894 3.36345 33.057C3.01609 34.0944 2.66825 35.1334 2.10133 36.0817C1.69733 36.7604 1.15867 37.2524 0.313333 37.2844C0.301452 37.2848 0.289212 37.2849 0.27676 37.285C0.169041 37.286 0.0454167 37.2872 0 37.4844ZM7.83977 25.4735C7.62671 24.8949 7.41001 24.3064 7.18812 23.7036C6.94444 24.3997 6.7039 25.0871 6.46567 25.7679C5.72369 27.8883 5.0041 29.9447 4.28145 31.9996C4.16113 32.3441 4.35122 32.3433 4.57514 32.3424C4.58694 32.3423 4.59884 32.3423 4.61079 32.3423C4.93165 32.3418 5.25246 32.3411 5.57324 32.3405C7.01602 32.3375 8.45807 32.3345 9.90012 32.3476C10.2801 32.3503 10.3375 32.2409 10.2095 31.9049C9.98273 31.3156 9.76693 30.7227 9.551 30.1294C9.44693 29.8434 9.34283 29.5574 9.23745 29.2716C8.77808 28.0217 8.31808 26.7725 7.83977 25.4735Z" fill="#F48FB1"/>
<path fill-rule="evenodd" clip-rule="evenodd" d="M30.7209 18.6735C31.2636 17.9601 31.8169 17.2548 32.3449 16.5308C32.5796 16.2081 32.8543 16.0135 33.2583 16.0268C33.7649 15.7988 34.2903 15.7468 34.8329 15.8481C35.1329 15.9641 35.4436 15.9228 35.7543 15.9241C37.4076 15.9335 39.0529 16.1495 40.6956 16.1801C42.1289 16.2068 42.9636 16.8988 43.7023 17.9548C44.1969 18.6615 44.7463 19.3295 45.2263 20.0468C45.6156 20.6281 45.5823 20.8641 45.1209 21.4188C44.6929 21.8961 44.2863 22.3921 43.8383 22.8535C43.3409 23.3148 42.9329 23.8601 42.4756 24.3588C41.6689 25.2388 40.8263 26.0815 39.9903 26.9308C39.5489 27.3815 39.0823 27.8041 38.6529 28.2668C38.2369 28.6455 37.8969 29.0961 37.5063 29.4988C36.9156 29.9401 36.6369 29.8975 36.2303 29.3081C36.1196 29.1455 36.0263 28.9721 35.9103 28.8121C34.8143 27.3641 33.8156 25.8455 32.7049 24.4081C32.4489 24.0761 32.2649 23.6855 31.9396 23.4055C31.5369 22.7535 30.9383 22.2255 30.7116 21.4615C30.4943 21.1601 30.2769 20.8601 30.0583 20.5575C29.7716 20.2108 29.7916 19.8988 30.1009 19.5575C30.3396 19.2935 30.5156 18.9695 30.7209 18.6735Z" fill="white"/>
<path fill-rule="evenodd" clip-rule="evenodd" d="M34.9098 16.0353C34.3591 16.0326 33.8085 16.0299 33.2578 16.0273C34.3405 15.0926 35.5151 14.3259 36.9178 13.9486C37.6671 13.7459 38.3871 13.6539 39.1898 13.7273C39.8231 13.7846 40.4711 13.7699 41.0965 13.9339C42.7045 14.3579 44.1538 15.0379 45.3018 16.3126C46.3565 17.4793 47.0738 18.7873 47.3685 20.3299C47.5458 21.0019 47.4725 21.6966 47.5378 22.3793C47.6085 23.1339 47.4018 23.8846 47.2071 24.6139C47.1338 24.8926 46.8631 24.8873 46.6405 24.7193C46.5965 25.0619 47.0711 25.3673 46.7058 25.7313L46.5965 25.9526C46.0298 27.1419 45.1831 28.0939 44.1178 28.8553C43.9618 28.9659 43.7911 29.1099 43.5711 28.9833C43.5458 28.9699 43.5245 28.9486 43.5098 28.9219C43.5151 28.9366 43.5285 28.9473 43.5391 28.9646C43.6325 29.1899 43.5085 29.3019 43.3258 29.3846C43.0485 29.5086 42.7818 29.6579 42.5165 29.8113H42.2965C41.2605 30.3766 40.1511 30.4979 38.9831 30.4606C38.4178 30.4433 37.8831 30.3313 37.3365 30.2513H37.0058C36.9031 29.9766 36.6125 30.1659 36.4538 30.0313C36.2738 29.9473 36.0778 29.9033 35.9018 29.8113H35.6818C35.5071 29.5459 35.1565 29.5739 34.9445 29.3633C34.8391 29.2566 34.7058 29.1699 34.7578 29.0006C34.8125 28.8179 34.9725 28.8099 35.1191 28.8513C35.2991 28.9059 35.4391 28.8646 35.5671 28.7366C35.7138 28.6446 35.8671 28.6419 36.0245 28.7006C36.1498 28.8566 36.2911 29.0019 36.3965 29.1686C36.7911 29.7886 36.8071 29.7966 37.4285 29.3606C37.8565 29.2339 38.2618 29.1819 38.7031 29.3899C39.2191 29.6313 39.7431 29.4566 40.2231 29.2113C40.3738 29.1353 40.5165 29.0633 40.6831 29.0539C42.3418 28.9553 43.5125 28.0273 44.5578 26.8379C45.2605 26.0379 45.6351 25.0633 46.1325 24.1513C46.2125 24.0059 46.2591 23.8473 46.2711 23.6793C46.3298 22.8339 46.3658 21.9873 46.4071 21.1419C46.4245 20.8086 46.1645 20.4993 46.0298 20.1833C45.6431 19.2819 45.4111 18.3019 44.7285 17.5393C43.5085 16.1806 42.0765 15.2913 40.2378 14.8886C38.7391 14.5606 37.5058 15.1406 36.1911 15.5073C35.7565 15.6273 35.4245 16.0606 34.9098 16.0353Z" fill="#FBF9F7"/>
<path fill-rule="evenodd" clip-rule="evenodd" d="M35.5725 28.8172C35.5658 29.1705 35.5658 29.1705 34.8285 28.9852C34.9831 29.2119 35.1218 29.3985 35.3738 29.4039C35.6685 29.4105 35.6738 29.6039 35.6831 29.8105C34.9485 29.7305 34.3725 29.2905 33.9178 28.7999C33.4458 28.2932 32.8871 27.8745 32.4698 27.3172C31.6565 26.2305 31.0271 25.0705 30.8311 23.6999C30.7245 22.9559 30.5951 22.2159 30.7125 21.4612C31.2338 22.0079 31.6298 22.6505 32.0605 23.2665C32.1605 23.5572 32.4778 23.8172 32.1871 24.1639C32.1658 24.1892 32.1778 24.2372 32.1951 24.2692C32.6098 25.0239 32.7551 25.9612 33.4325 26.5279C34.0098 27.0105 34.4551 27.5905 34.9631 28.1252C35.1005 28.2705 35.2938 28.2679 35.4551 28.3452C35.6631 28.4439 35.8778 28.5745 35.5725 28.8172Z" fill="#FBF9F7"/>
<path fill-rule="evenodd" clip-rule="evenodd" d="M46.7053 25.7305C46.712 25.6238 46.7613 25.4465 46.7173 25.4198C46.1293 25.0531 46.6267 24.6745 46.6547 24.2625C46.8653 24.3825 46.5707 24.7425 46.9173 24.6998C47.1253 24.6745 47.096 24.4691 47.152 24.3171C47.512 23.3318 47.3867 22.3171 47.38 21.3051C47.376 20.9798 47.0387 20.6545 47.368 20.3291C47.428 20.4598 47.5307 20.5865 47.544 20.7211C47.7 22.2625 47.7093 23.7945 47.1307 25.2678C47.052 25.4678 46.9547 25.6745 46.7053 25.7305Z" fill="#FBF9F7"/>
<path fill-rule="evenodd" clip-rule="evenodd" d="M43.5109 28.9279C44.1322 28.8719 44.4722 28.3652 44.8909 28.0159C45.4309 27.5665 45.8696 27.0025 46.1656 26.3505C46.2562 26.1532 46.4856 26.1185 46.5976 25.9519C46.6616 26.4025 46.3656 26.7225 46.1456 27.0425C45.6256 27.7985 44.9642 28.4239 44.2189 28.9665C43.6949 29.3465 43.1749 29.7092 42.5176 29.8105C42.6096 29.5972 42.7416 29.4652 42.9869 29.3999C43.2149 29.3399 43.5016 29.2652 43.5109 28.9279Z" fill="#FBF9F7"/>
<path fill-rule="evenodd" clip-rule="evenodd" d="M37.3359 30.2506C37.4906 30.1012 37.6693 30.1386 37.8506 30.1839C39.2039 30.5186 40.5199 30.3639 41.8159 29.8919C41.9653 29.8372 42.1359 29.8359 42.2959 29.8106C41.8079 30.3812 41.0919 30.4292 40.4386 30.5626C39.9493 30.6639 39.4226 30.5346 38.9253 30.5439C38.5039 30.5519 38.0999 30.5932 37.6866 30.4746C37.5386 30.4332 37.4106 30.3919 37.3359 30.2506Z" fill="#FBF9F7"/>
<path fill-rule="evenodd" clip-rule="evenodd" d="M35.9023 29.8111C36.185 29.6378 36.2783 29.9378 36.4543 30.0311C36.253 29.9991 35.989 30.1285 35.9023 29.8111Z" fill="#FBF9F7"/>
<path fill-rule="evenodd" clip-rule="evenodd" d="M36.4531 30.03C36.6265 30.13 36.9745 29.794 37.0051 30.25C36.8211 30.1767 36.6371 30.1033 36.4531 30.03Z" fill="#FBF9F7"/>
<path fill-rule="evenodd" clip-rule="evenodd" d="M34.9102 16.0335C35.6182 15.5788 36.3208 15.0935 37.1768 14.9775C37.5288 14.9308 37.8355 14.7721 38.1648 14.6815C39.7635 14.2441 41.2528 14.7815 42.5635 15.4521C43.8408 16.1068 45.0488 17.1255 45.6075 18.5375C45.8288 19.0948 46.2368 19.6081 46.2675 20.2508C46.2768 20.4228 46.3422 20.6615 46.4662 20.7481C46.7955 20.9775 46.5822 21.1721 46.5715 21.4375C46.5502 21.9068 46.3822 22.4521 46.5022 22.8095C46.6235 23.1708 46.5475 23.5001 46.4862 23.7228C46.3342 24.2935 46.1222 24.8841 45.6955 25.3428C45.4462 25.6121 45.4995 25.9975 45.2488 26.3015C44.5648 27.1295 43.8835 27.9121 42.9382 28.4935C42.4102 28.8188 41.7915 28.9215 41.3115 29.3108C41.2902 29.3281 41.2395 29.3175 41.2048 29.3081C41.0115 29.2548 40.8235 29.2201 40.6128 29.2335C40.3702 29.2508 40.3542 29.3468 40.4102 29.5321C39.9075 29.3748 39.4555 29.8735 38.9742 29.6788C38.4702 29.4761 37.9302 29.5268 37.4288 29.3588C37.7675 28.9255 38.1008 28.4868 38.5475 28.1548C38.8502 27.9588 39.2048 27.9015 39.5408 27.8775C40.5395 27.8015 41.4035 27.3735 42.2635 26.9268C43.1382 26.4735 43.7382 25.7641 44.1728 24.8801C44.7102 23.7815 45.0515 22.6548 44.9115 21.4161C45.4115 20.6481 45.4155 20.6455 44.8475 19.8721C44.1755 18.9561 43.4955 18.0495 42.7755 17.1695C42.3808 16.6828 41.9142 16.5108 41.3088 16.4575C39.2862 16.2788 37.2608 16.1401 35.2288 16.1068C35.1222 16.1055 35.0168 16.0588 34.9102 16.0335Z" fill="#FBF9F7"/>
<path fill-rule="evenodd" clip-rule="evenodd" d="M31.1406 20.2081C32.1033 20.0348 33.0726 20.1681 34.038 20.1401C34.23 20.1348 34.326 20.2521 34.366 20.4401C34.902 22.9841 35.766 25.4428 36.3246 27.9815C36.338 28.0415 36.3193 28.1108 36.3073 28.3281C35.1926 26.7655 34.1566 25.3135 33.1193 23.8615C33.1766 23.5455 32.9406 23.3015 32.9326 22.9788C32.9166 22.3081 32.8473 21.6601 33.1033 20.9988C33.2913 20.5108 33.1873 20.4375 32.6566 20.4228C32.3286 20.4135 32.0006 20.4308 31.6726 20.4135C31.4766 20.4028 31.2633 20.4175 31.1406 20.2081Z" fill="#ED9FBB"/>
<path fill-rule="evenodd" clip-rule="evenodd" d="M44.9109 21.4174C45.3642 21.804 45.1429 22.284 45.0895 22.7374C45.0789 22.8227 44.9669 22.9067 44.9762 22.9814C45.1242 24.072 44.3629 24.844 43.9482 25.7067C43.5709 26.4894 42.7642 27.0147 41.9469 27.3414C41.3309 27.5867 40.7602 27.972 40.0562 28.02C39.5535 28.0534 39.0655 28.2614 38.5469 28.156C38.9482 27.676 39.3922 27.2374 39.8695 26.8334C40.1629 26.5707 40.4802 26.4227 40.9002 26.412C41.3602 26.3974 41.6695 26 41.9909 25.7214C42.6189 25.1694 43.2055 24.572 43.4975 23.7427C43.6135 23.4134 43.5175 23.0467 43.7242 22.748C44.0975 22.284 44.4589 21.8107 44.9109 21.4174Z" fill="#FBF9F7"/>
<path fill-rule="evenodd" clip-rule="evenodd" d="M35.8906 24.432C35.5986 23.7094 35.4146 22.9574 35.2546 22.1974C35.1786 21.54 35.2479 20.8894 35.3599 20.2427C35.9893 20.1814 36.6039 20.3614 37.2293 20.3507C37.3053 20.3774 37.3773 20.4107 37.4053 20.4947C37.4173 20.5694 37.4266 20.6574 37.3773 20.7067C36.8813 21.1907 36.9733 21.8014 36.9786 22.4054C36.9879 23.24 37.3919 23.7827 38.1439 24.096C38.3119 24.1667 38.4919 24.2227 38.5719 24.4134C38.4666 24.868 38.3813 25.3307 38.1399 25.7427C37.5186 25.9267 37.0519 25.6134 36.6306 25.2347C36.3626 24.9934 36.1426 24.696 35.8906 24.432Z" fill="#E7A9C2"/>
<path fill-rule="evenodd" clip-rule="evenodd" d="M39.5693 18.1206C39.2733 17.6846 38.9773 17.2486 38.6387 16.7526C39.3893 16.5926 40.06 16.8633 40.7333 16.8326C41.7253 16.79 42.404 17.2566 42.9533 18.0513C43.4667 18.7966 44.0693 19.482 44.5787 20.2913C44.128 20.3833 43.7653 20.1926 43.3893 20.1953C42.8293 20.2153 42.4907 19.9406 42.1533 19.4873C41.6413 18.7993 40.9973 18.2166 40.0227 18.2806C39.856 18.2913 39.704 18.2233 39.5693 18.1206Z" fill="#ECA1BC"/>
<path fill-rule="evenodd" clip-rule="evenodd" d="M38.5547 26.0633C38.6894 25.654 38.8254 25.2447 38.9614 24.8367C39.5267 24.6833 40.048 24.4127 40.576 24.174C41.2734 23.858 41.82 22.7087 41.748 21.9327C41.7254 21.6753 41.5454 21.5073 41.452 21.2913C41.2587 20.846 41.388 20.6167 41.876 20.6113C42.2374 20.6073 42.6054 20.5433 42.9627 20.6553C43.3547 21.282 43.5 21.934 43.1654 22.6367C42.052 23.9433 40.8774 25.194 39.6534 26.3967C39.2147 26.5207 38.884 26.2927 38.5547 26.0633Z" fill="#E7A8C1"/>
<path fill-rule="evenodd" clip-rule="evenodd" d="M35.6836 19.7756C34.6316 19.7623 34.5889 19.9676 35.0983 18.8903C35.4023 18.2476 35.7476 17.6236 36.0396 16.9756C36.1849 16.6556 36.4049 16.629 36.7143 16.565C37.9383 16.3183 38.4503 17.089 38.9023 17.9876C38.9516 18.113 38.8689 18.157 38.7743 18.165C37.8023 18.2343 37.0236 18.6863 36.3929 19.4023C36.1929 19.6263 35.9183 19.6503 35.6836 19.7756Z" fill="#ECA1BD"/>
<path fill-rule="evenodd" clip-rule="evenodd" d="M31.1411 20.209C31.7651 20.213 32.3891 20.229 33.0117 20.217C33.3211 20.2104 33.4891 20.3504 33.4304 20.6344C33.3837 20.8584 33.3997 21.165 33.2877 21.2944C32.7411 21.9317 33.3104 22.6237 33.1277 23.2664C33.0811 23.437 33.3304 23.441 33.3744 23.5984C33.4477 23.8624 33.3904 23.953 33.1197 23.8624C32.2211 22.6784 31.3211 21.4944 30.3438 20.209H31.1411Z" fill="#F099B7"/>
<path fill-rule="evenodd" clip-rule="evenodd" d="M32.9355 16.5826C33.7969 16.3586 34.6702 16.5106 35.5382 16.5132C35.7702 16.5146 35.7222 16.6932 35.6502 16.8319C35.4822 17.1546 35.3089 17.4746 35.1369 17.7946C34.8302 18.1119 34.6489 18.5199 34.4302 18.8879C34.0555 19.5119 33.5862 19.8132 32.8635 19.7252C32.6302 19.6959 32.3902 19.7519 32.1555 19.6946C32.0355 19.4666 32.1689 19.2666 32.2435 19.0706C32.5822 18.1906 33.1142 17.4439 33.8835 16.8492C33.5555 16.6906 33.1729 16.8946 32.9355 16.5826Z" fill="#EF99B8"/>
<path fill-rule="evenodd" clip-rule="evenodd" d="M35.5717 28.817C35.6544 28.6556 35.6157 28.4676 35.4504 28.4703C34.5664 28.4836 34.3357 27.7876 34.0491 27.1836C33.9264 26.9223 33.7331 27.1423 33.5944 27.0143C33.2544 26.705 32.9744 26.3543 32.7677 25.9516C32.6504 25.7236 32.4104 25.497 32.4037 25.2996C32.3851 24.8023 32.0371 24.501 31.8597 24.105C31.8424 24.065 31.8651 23.9596 31.8811 23.957C32.4464 23.8543 31.9024 23.469 32.0597 23.2663C33.0411 24.445 33.9091 25.7076 34.7984 26.9556C35.2104 27.5343 35.6157 28.1183 36.0251 28.6996C35.8837 28.7756 35.7357 28.8276 35.5717 28.817Z" fill="#FBF9F7"/>
<path fill-rule="evenodd" clip-rule="evenodd" d="M42.9623 20.6563C42.5969 20.659 42.2276 20.643 41.8636 20.6736C41.5423 20.7003 41.3609 20.8856 41.6143 21.1816C42.1236 21.7763 41.8329 22.351 41.7396 23.003C41.5969 24.0096 40.8969 24.2456 40.1756 24.5576C39.9783 24.6443 39.7249 24.6816 39.5903 24.827C39.3516 25.083 39.1716 24.9763 38.9609 24.8376C39.0516 24.551 39.1423 24.2643 39.2329 23.9763C39.4809 23.7976 39.7129 23.6043 39.9876 23.4536C40.6329 23.1003 40.8796 22.355 40.6489 21.6083C40.5449 21.267 40.3529 20.9363 40.5329 20.563C41.3436 20.5723 42.1596 20.471 42.9623 20.6563Z" fill="#E2B3C8"/>
<path fill-rule="evenodd" clip-rule="evenodd" d="M32.9359 16.5828C33.3013 16.5828 33.6653 16.5815 34.0319 16.5842C34.1213 16.5842 34.2266 16.5722 34.2733 16.6695C34.3346 16.8002 34.2359 16.8922 34.1479 16.9375C33.4599 17.2775 33.1053 17.9282 32.6973 18.5175C32.4586 18.8602 32.4346 19.3228 32.1533 19.6562C31.6399 19.7762 31.1266 19.7455 30.6133 19.6682C31.3266 18.5935 32.0386 17.5188 32.9359 16.5828Z" fill="#F195B5"/>
<path fill-rule="evenodd" clip-rule="evenodd" d="M43.7251 22.7467C43.9371 23.8427 43.3638 24.5774 42.6585 25.324C42.2585 25.7467 41.7918 26.06 41.3785 26.448C41.1998 26.6174 41.0585 26.708 40.8091 26.6294C40.4678 26.5214 40.1745 26.7227 39.8691 26.832C41.1558 25.4694 42.4398 24.108 43.7251 22.7467Z" fill="#FBF9F7"/>
<path fill-rule="evenodd" clip-rule="evenodd" d="M35.6836 19.7748C36.3583 19.0135 37.1849 18.4628 38.0836 17.9988C38.3783 17.8482 38.6316 18.0428 38.9009 17.9868C39.2023 18.3322 39.4436 18.7148 39.6449 19.1255C39.6863 19.3362 39.5089 19.3868 39.3876 19.3855C38.5916 19.3762 37.8889 19.7748 37.1209 19.8735C36.6396 19.8802 36.1556 19.9175 35.6836 19.7748Z" fill="#E8A7C1"/>
<path fill-rule="evenodd" clip-rule="evenodd" d="M39.5703 18.1212C40.8823 17.8946 41.7743 18.5332 42.4423 19.5652C42.681 19.9319 42.9996 20.0972 43.3903 20.1959C42.5836 20.2692 41.789 20.0799 40.985 20.1039C40.7743 20.1092 40.6543 20.0066 40.5556 19.8292C40.2343 19.2559 39.8996 18.6892 39.5703 18.1212Z" fill="#E8A7C1"/>
<path fill-rule="evenodd" clip-rule="evenodd" d="M39.8498 21.091C39.5298 21.9057 39.2072 22.7217 38.8858 23.5364C38.2178 23.559 37.9805 23.0497 37.7792 22.5684C37.5498 22.0164 37.6832 21.4844 38.1058 21.055C38.4885 20.6644 38.9645 20.5177 39.5072 20.6444C39.7338 20.6977 39.8125 20.883 39.8498 21.091Z" fill="#E1B8CA"/>
<path fill-rule="evenodd" clip-rule="evenodd" d="M38.5733 24.4121C37.3413 24.1654 36.8373 23.5081 36.7667 22.3041C36.7227 21.5788 36.832 20.9668 37.336 20.4401C37.3507 20.4294 37.3653 20.4081 37.3787 20.4081C37.6747 20.4121 38.064 20.2281 38.2347 20.5054C38.3987 20.7721 38.068 21.0308 37.916 21.2641C37.3733 22.1014 37.6733 23.1388 38.648 23.6881C38.7267 23.7321 38.8253 23.7321 38.7733 23.8601C38.7067 24.0454 38.64 24.2281 38.5733 24.4121Z" fill="#E4AEC5"/>
<path fill-rule="evenodd" clip-rule="evenodd" d="M40.5344 20.5619C40.4984 20.9872 40.797 21.3032 40.8984 21.6872C41.125 22.5312 40.6864 23.4672 39.8544 23.7339C39.6397 23.8032 39.5184 24.1099 39.2344 23.9766C39.6677 22.8392 40.101 21.7006 40.5344 20.5619Z" fill="#E2B3C8"/>
<path fill-rule="evenodd" clip-rule="evenodd" d="M38.7731 23.8613C37.7011 23.696 37.1265 22.236 37.5545 21.4987C37.7438 21.1747 37.9425 20.8573 38.1585 20.5C37.8745 20.3973 37.6011 20.4573 37.3358 20.4413C37.3011 20.412 37.2651 20.3813 37.2305 20.3507C38.0505 20.26 38.8585 20.4293 39.6731 20.4573C40.2251 20.4773 39.8865 20.8507 39.8505 21.0907C39.3811 20.6653 38.8051 20.68 38.2851 21.1307C37.8571 21.5027 37.7491 22.2573 38.0531 22.7307C38.2678 23.064 38.5558 23.324 38.8865 23.536C38.8825 23.656 38.8691 23.7733 38.7731 23.8613Z" fill="#E2B3C8"/>
<path fill-rule="evenodd" clip-rule="evenodd" d="M35.8906 24.4307C35.916 24.3361 35.9386 24.2307 36.0533 24.3667C36.296 24.6561 36.5813 24.9134 36.84 25.1801C37.1613 25.5054 37.676 25.6161 38.14 25.7414C38.0906 25.9747 38.0413 26.2081 37.8973 26.4067C37.608 26.4267 37.8293 26.8521 37.604 26.8334C37.3426 26.8107 37.104 26.6387 36.856 26.5321C36.6293 26.4347 36.536 26.1881 36.3333 26.0667C36.1293 25.5361 35.9826 24.9907 35.8906 24.4307Z" fill="#EAA3BE"/>
<path fill-rule="evenodd" clip-rule="evenodd" d="M36.332 26.0674C36.8294 26.1274 37.1294 26.5741 37.6094 26.6687C37.828 26.7447 37.384 26.0834 37.896 26.4087C37.6547 27.1687 37.3774 27.9154 36.908 28.6367C36.7147 27.7807 36.5254 26.9234 36.332 26.0674Z" fill="#EE9FBC"/>
<path fill-rule="evenodd" clip-rule="evenodd" d="M43.1647 22.6367C43.1554 22.6221 43.13 22.6061 43.134 22.5954C43.2927 21.9287 42.9314 21.3087 42.9607 20.6554C43.4354 20.6287 43.8994 20.6981 44.3674 20.7621C44.7074 20.8087 44.7434 20.9061 44.518 21.1501C44.0634 21.6421 43.6154 22.1407 43.1647 22.6367Z" fill="#EBA3BE"/>
<path fill-rule="evenodd" clip-rule="evenodd" d="M38.5554 26.064C38.8234 26.22 38.9167 25.864 39.1861 25.8627C39.1447 26.0067 39.1047 26.1414 39.0554 26.308C39.2901 26.2014 39.5381 25.9747 39.6541 26.3974C39.0034 27.0094 38.3514 27.624 37.6914 28.248C37.9754 27.528 38.2647 26.796 38.5554 26.064Z" fill="#EDA3BE"/>
<path fill-rule="evenodd" clip-rule="evenodd" d="M37.1211 19.8735C37.8411 19.5762 38.4998 19.0642 39.3598 19.2495C39.4424 19.2669 39.5491 19.1695 39.6464 19.1242C39.8318 19.3655 40.1278 19.6455 39.9998 19.9162C39.8931 20.1455 39.5011 20.0002 39.2384 19.9922C38.5331 19.9695 37.8264 19.9149 37.1211 19.8735Z" fill="#E6ACC5"/>
<path fill-rule="evenodd" clip-rule="evenodd" d="M30.613 19.6689C31.1264 19.6649 31.6384 19.6609 32.1517 19.6569C32.4624 19.6609 32.7757 19.6449 33.085 19.6702C33.6237 19.7169 33.845 19.3009 34.1144 18.9729C34.445 18.5702 34.697 18.1036 35.1357 17.7956C34.8704 18.3596 34.6024 18.9209 34.337 19.4849C34.2477 19.6729 34.097 19.7529 33.8944 19.7529C32.829 19.7582 31.765 19.7636 30.6997 19.7676C30.6464 19.7676 30.589 19.7462 30.613 19.6689Z" fill="#EE9FBB"/>
<path fill-rule="evenodd" clip-rule="evenodd" d="M35.359 20.2426C35.483 20.3119 35.607 20.3799 35.735 20.4519C35.391 20.7626 35.311 21.1506 35.415 21.5853C35.471 21.8226 35.3696 22.0093 35.2536 22.1973C35.059 21.7426 35.0296 21.2453 34.8843 20.7813C34.7256 20.2893 34.8803 20.1399 35.359 20.2426Z" fill="#EBA4BF"/>
<path fill-rule="evenodd" clip-rule="evenodd" d="M39.6282 30.0724C38.9682 30.1298 38.3202 30.2711 37.6855 29.8564C38.0575 29.4911 38.3309 29.8964 38.6175 29.9498C38.9642 30.0138 39.3055 30.0271 39.6282 30.0724Z" fill="#FBF9F7"/>
<path fill-rule="evenodd" clip-rule="evenodd" d="M39.6172 30.028C39.9732 29.7813 40.2959 29.7533 40.6332 29.7813C40.3452 30.0427 39.9972 30.032 39.6172 30.028Z" fill="#FBF9F7"/>
<path fill-rule="evenodd" clip-rule="evenodd" d="M44.0488 28.2891C44.1795 28.0357 44.3008 27.7624 44.7355 27.6517C44.4875 27.9477 44.3648 28.2064 44.0488 28.2891Z" fill="#FBF9F7"/>
<path fill-rule="evenodd" clip-rule="evenodd" d="M43.0586 28.862C43.3519 28.7034 43.4773 28.4927 43.7959 28.434C43.6613 28.7607 43.5693 29.0114 43.0586 28.862Z" fill="#FBF9F7"/>
<path fill-rule="evenodd" clip-rule="evenodd" d="M45.2285 26.9412C45.3378 26.9172 45.3645 26.9626 45.3605 27.0212C45.3538 27.1186 45.3032 27.1919 45.2072 27.2186C45.1445 27.2372 45.0885 27.1892 45.1072 27.1346C45.1365 27.0572 45.1952 26.9906 45.2285 26.9412Z" fill="#FBF9F7"/>
<path fill-rule="evenodd" clip-rule="evenodd" d="M37.5183 29.8027C37.4769 29.8387 37.4463 29.8773 37.4076 29.8933C37.3863 29.9013 37.3503 29.8667 37.3223 29.852C37.3516 29.816 37.3796 29.7733 37.4156 29.748C37.4289 29.74 37.4703 29.776 37.5183 29.8027Z" fill="#FBF9F7"/>
</svg>
